<svg width="32" height="32" viewBox="0 0 32 32" fill="none" xmlns="http://www.w3.org/2000/svg">
<path d="M19.8409 17.1522C21.0889 20.3202 22.0169 23.5842 22.6249 26.9442C23.4889 26.4322 24.2889 25.7922 25.0249 25.0562C26.9449 23.1362 28.1609 20.7362 28.6089 18.1442C26.7209 17.3762 24.6729 16.9282 22.5289 16.9282C21.6329 16.9282 20.7369 16.9922 19.8409 17.1522ZM25.0569 6.97619C25.0569 6.94419 25.0569 6.94419 25.0569 6.97619C22.6249 4.5442 19.4249 3.2002 16.0009 3.2002C14.6569 3.2002 13.3449 3.3922 12.1289 3.8082C14.1129 6.3042 15.8729 8.9602 17.3449 11.7442C20.1609 10.5602 22.7529 8.92819 25.0569 6.97619ZM26.0809 8.09619C23.6489 10.1762 20.9609 11.8402 18.0489 13.0882C18.4649 13.9522 18.8809 14.8482 19.2649 15.7442C20.3529 15.5522 21.4409 15.4242 22.5609 15.4242C24.7049 15.4242 26.8169 15.8082 28.8009 16.5762V16.0002C28.8009 13.0882 27.8409 10.3362 26.0809 8.09619ZM8.12891 26.0802C10.3689 27.8402 13.1209 28.8002 16.0009 28.8002C17.8249 28.8002 19.6169 28.4162 21.2489 27.6802C20.6409 24.1602 19.6489 20.7362 18.3689 17.4722C13.8249 18.7202 10.0809 21.9202 8.12891 26.0802Z" fill="#373737"/>
<path d="M15.7432 16.8003C16.4152 16.5123 17.0872 16.2883 17.7592 16.0963C17.4072 15.2643 17.0232 14.4643 16.6072 13.6643C13.1512 14.9443 9.50322 15.5843 5.79122 15.5843C4.92722 15.5843 4.06322 15.5523 3.19922 15.4883V16.0003C3.19922 19.4243 4.54322 22.6243 6.94322 25.0563C7.77522 23.3923 8.86322 21.8883 10.2072 20.5443C11.8072 18.9443 13.6952 17.6643 15.7432 16.8003ZM15.9352 12.3203C14.3992 9.50428 12.6392 6.84828 10.6232 4.38428C9.27922 5.02428 8.03122 5.88828 6.94322 6.94428C4.99122 8.89628 3.77522 11.3283 3.35922 13.9843C4.15922 14.0483 4.99122 14.0803 5.79122 14.0803C9.34322 14.0803 12.7672 13.4723 15.9352 12.3203Z" fill="#373737"/>
</svg>
