<svg width="32" height="32" viewBox="0 0 32 32" fill="none" xmlns="http://www.w3.org/2000/svg">
<path d="M28.7992 28.8002V19.4242C28.7992 14.8162 27.8072 11.2962 22.4312 11.2962C19.8392 11.2962 18.1112 12.7042 17.4072 14.0482H17.3432V11.7122H12.2552V28.8002H17.5672V20.3202C17.5672 18.0802 17.9832 15.9362 20.7352 15.9362C23.4552 15.9362 23.4872 18.4642 23.4872 20.4482V28.7682H28.7992V28.8002ZM3.61522 11.7122H8.92722V28.8002H3.61522V11.7122ZM6.27122 3.2002C4.57522 3.2002 3.19922 4.5762 3.19922 6.2722C3.19922 7.9682 4.57522 9.37619 6.27122 9.37619C7.96722 9.37619 9.34322 7.9682 9.34322 6.2722C9.34322 4.5762 7.96722 3.2002 6.27122 3.2002Z" fill="#373737"/>
</svg>
